<?xml version="1.0" encoding="UTF-8" standalone="no"?>
<!DOCTYPE svg PUBLIC "-//W3C//DTD SVG 1.1//EN"
 "http://www.w3.org/Graphics/SVG/1.1/DTD/svg11.dtd">
<!-- Generated by graphviz version 2.40.1 (20161225.0304)
 -->
<!-- Title: state transitions Pages: 1 -->
<svg width="606pt" height="470pt"
 viewBox="0.00 0.00 606.00 470.00" xmlns="http://www.w3.org/2000/svg" xmlns:xlink="http://www.w3.org/1999/xlink">
<g id="graph0" class="graph" transform="scale(1 1) rotate(0) translate(4 466)">
<title>state transitions</title>
<polygon fill="#ffffff" stroke="transparent" points="-4,4 -4,-466 602,-466 602,4 -4,4"/>
<g id="clust1" class="cluster state regular">
<title>cluster_r_SM_Main</title>
<path fill="none" stroke="#000000" stroke-width="2" d="M20,-8C20,-8 578,-8 578,-8 584,-8 590,-14 590,-20 590,-20 590,-442 590,-442 590,-448 584,-454 578,-454 578,-454 20,-454 20,-454 14,-454 8,-448 8,-442 8,-442 8,-20 8,-20 8,-14 14,-8 20,-8"/>
<text text-anchor="start" x="268.8334" y="-435.2" font-family="Helvetica,sans-Serif" font-size="12.00" fill="#000000">r_SM_Main</text>
</g>
<!-- r_SM_Main -->
<!-- s_IDLE -->
<g id="node2" class="node state regular">
<title>s_IDLE</title>
<polygon fill="#ffffff" fill-opacity="0.003922" stroke="transparent" stroke-width="2" points="312.5,-416 251.5,-416 251.5,-380 312.5,-380 312.5,-416"/>
<text text-anchor="start" x="262.829" y="-394.2" font-family="Helvetica,sans-Serif" font-size="12.00" fill="#000000">s_IDLE</text>
<path fill="none" stroke="#000000" stroke-width="2" d="M263.8333,-381C263.8333,-381 300.1667,-381 300.1667,-381 305.8333,-381 311.5,-386.6667 311.5,-392.3333 311.5,-392.3333 311.5,-403.6667 311.5,-403.6667 311.5,-409.3333 305.8333,-415 300.1667,-415 300.1667,-415 263.8333,-415 263.8333,-415 258.1667,-415 252.5,-409.3333 252.5,-403.6667 252.5,-403.6667 252.5,-392.3333 252.5,-392.3333 252.5,-386.6667 258.1667,-381 263.8333,-381"/>
</g>
<!-- s_IDLE&#45;&gt;s_IDLE -->
<g id="edge2" class="edge transition">
<title>s_IDLE&#45;&gt;s_IDLE</title>
<path fill="none" stroke="#000000" d="M312.7377,-402.856C324.6221,-403.0718 334.5,-401.4531 334.5,-398 334.5,-395.626 329.8311,-394.119 323.0512,-393.4792"/>
<polygon fill="#000000" stroke="#000000" points="322.8461,-389.9707 312.7377,-393.144 322.6187,-396.967 322.8461,-389.9707"/>
<text text-anchor="start" x="334.5" y="-395" font-family="Helvetica,sans-Serif" font-size="10.00" fill="#000000">not (r_Rx_Data == 1&#39;b0) &#160;&#160;</text>
</g>
<!-- s_RX_START_BIT -->
<g id="node3" class="node state regular">
<title>s_RX_START_BIT</title>
<polygon fill="#ffffff" fill-opacity="0.003922" stroke="transparent" stroke-width="2" points="207,-322 85,-322 85,-286 207,-286 207,-322"/>
<text text-anchor="start" x="95.6618" y="-300.2" font-family="Helvetica,sans-Serif" font-size="12.00" fill="#000000">s_RX_START_BIT</text>
<path fill="none" stroke="#000000" stroke-width="2" d="M97.3333,-287C97.3333,-287 194.6667,-287 194.6667,-287 200.3333,-287 206,-292.6667 206,-298.3333 206,-298.3333 206,-309.6667 206,-309.6667 206,-315.3333 200.3333,-321 194.6667,-321 194.6667,-321 97.3333,-321 97.3333,-321 91.6667,-321 86,-315.3333 86,-309.6667 86,-309.6667 86,-298.3333 86,-298.3333 86,-292.6667 91.6667,-287 97.3333,-287"/>
</g>
<!-- s_IDLE&#45;&gt;s_RX_START_BIT -->
<g id="edge1" class="edge transition">
<title>s_IDLE&#45;&gt;s_RX_START_BIT</title>
<path fill="none" stroke="#000000" d="M251.41,-392.4997C220.3708,-386.3286 175.176,-375.526 162.759,-363 154.6353,-354.8049 150.3862,-342.9757 148.1871,-332.0576"/>
<polygon fill="#000000" stroke="#000000" points="151.6228,-331.371 146.6473,-322.0171 144.7037,-332.4322 151.6228,-331.371"/>
<text text-anchor="start" x="162" y="-348" font-family="Helvetica,sans-Serif" font-size="10.00" fill="#000000">r_Rx_Data == 1&#39;b0 &#160;&#160;</text>
</g>
<!-- s_RX_START_BIT&#45;&gt;s_IDLE -->
<g id="edge4" class="edge transition">
<title>s_RX_START_BIT&#45;&gt;s_IDLE</title>
<path fill="none" stroke="#000000" d="M207.2757,-313.688C224.6122,-318.8673 242.4333,-326.8127 256,-339 265.1168,-347.1898 271.1911,-359.1659 275.1578,-370.1917"/>
<polygon fill="#000000" stroke="#000000" points="271.8806,-371.4366 278.2349,-379.9144 278.5543,-369.3243 271.8806,-371.4366"/>
<text text-anchor="start" x="272" y="-354" font-family="Helvetica,sans-Serif" font-size="10.00" fill="#000000">not (r_Rx_Data == 1&#39;b0) &#160;&#160;</text>
<text text-anchor="start" x="272" y="-342" font-family="Helvetica,sans-Serif" font-size="10.00" fill="#000000">r_Clock_Count == (CLKS_PER_BIT&#45;1)/2 &#160;&#160;</text>
</g>
<!-- s_RX_START_BIT&#45;&gt;s_RX_START_BIT -->
<g id="edge5" class="edge transition">
<title>s_RX_START_BIT&#45;&gt;s_RX_START_BIT</title>
<path fill="none" stroke="#000000" d="M207.1684,-308.7036C219.8678,-308.2085 229,-306.6406 229,-304 229,-302.1433 224.4852,-300.817 217.39,-300.021"/>
<polygon fill="#000000" stroke="#000000" points="217.3909,-296.5124 207.1684,-299.2964 216.8959,-303.4948 217.3909,-296.5124"/>
<text text-anchor="start" x="229" y="-301" font-family="Helvetica,sans-Serif" font-size="10.00" fill="#000000">not (r_Clock_Count == (CLKS_PER_BIT&#45;1)/2) &#160;&#160;</text>
</g>
<!-- s_RX_DATA_BITS -->
<g id="node4" class="node state regular">
<title>s_RX_DATA_BITS</title>
<polygon fill="#ffffff" fill-opacity="0.003922" stroke="transparent" stroke-width="2" points="139.5,-228 16.5,-228 16.5,-192 139.5,-192 139.5,-228"/>
<text text-anchor="start" x="27.8258" y="-206.2" font-family="Helvetica,sans-Serif" font-size="12.00" fill="#000000">s_RX_DATA_BITS</text>
<path fill="none" stroke="#000000" stroke-width="2" d="M28.8333,-193C28.8333,-193 127.1667,-193 127.1667,-193 132.8333,-193 138.5,-198.6667 138.5,-204.3333 138.5,-204.3333 138.5,-215.6667 138.5,-215.6667 138.5,-221.3333 132.8333,-227 127.1667,-227 127.1667,-227 28.8333,-227 28.8333,-227 23.1667,-227 17.5,-221.3333 17.5,-215.6667 17.5,-215.6667 17.5,-204.3333 17.5,-204.3333 17.5,-198.6667 23.1667,-193 28.8333,-193"/>
</g>
<!-- s_RX_START_BIT&#45;&gt;s_RX_DATA_BITS -->
<g id="edge3" class="edge transition">
<title>s_RX_START_BIT&#45;&gt;s_RX_DATA_BITS</title>
<path fill="none" stroke="#000000" d="M132.8889,-285.8759C122.7291,-271.8314 108.5064,-252.1706 97.0845,-236.3816"/>
<polygon fill="#000000" stroke="#000000" points="99.7679,-234.1193 91.0708,-228.0685 94.0963,-238.2222 99.7679,-234.1193"/>
<text text-anchor="start" x="120" y="-260" font-family="Helvetica,sans-Serif" font-size="10.00" fill="#000000">r_Rx_Data == 1&#39;b0 &#160;&#160;</text>
<text text-anchor="start" x="120" y="-248" font-family="Helvetica,sans-Serif" font-size="10.00" fill="#000000">r_Clock_Count == (CLKS_PER_BIT&#45;1)/2 &#160;&#160;</text>
</g>
<!-- s_RX_DATA_BITS&#45;&gt;s_RX_DATA_BITS -->
<g id="edge6" class="edge transition">
<title>s_RX_DATA_BITS&#45;&gt;s_RX_DATA_BITS</title>
<path fill="none" stroke="#000000" d="M139.5369,-212.3518C152.3128,-212.1042 161.5,-211.3203 161.5,-210 161.5,-209.0717 156.958,-208.4085 149.8201,-208.0105"/>
<polygon fill="#000000" stroke="#000000" points="149.654,-204.5026 139.5369,-207.6482 149.4074,-211.4982 149.654,-204.5026"/>
<text text-anchor="start" x="161.5" y="-207" font-family="Helvetica,sans-Serif" font-size="10.00" fill="#000000">r_Clock_Count &lt; CLKS_PER_BIT&#45;1 &#160;&#160;</text>
</g>
<!-- s_RX_DATA_BITS&#45;&gt;s_RX_DATA_BITS -->
<g id="edge7" class="edge transition">
<title>s_RX_DATA_BITS&#45;&gt;s_RX_DATA_BITS</title>
<path fill="none" stroke="#000000" d="M139.6803,-213.8827C215.6481,-216.0105 329.589,-214.7163 329.589,-210 329.589,-205.4956 225.655,-204.1127 150.1343,-205.8513"/>
<polygon fill="#000000" stroke="#000000" points="149.588,-202.364 139.6803,-206.1173 149.7661,-209.3617 149.588,-202.364"/>
<text text-anchor="start" x="329.589" y="-213" font-family="Helvetica,sans-Serif" font-size="10.00" fill="#000000">r_Bit_Index &lt; 7 &#160;&#160;</text>
<text text-anchor="start" x="329.589" y="-201" font-family="Helvetica,sans-Serif" font-size="10.00" fill="#000000">not (r_Clock_Count &lt; CLKS_PER_BIT&#45;1) &#160;&#160;</text>
</g>
<!-- s_RX_STOP_BIT -->
<g id="node5" class="node state regular">
<title>s_RX_STOP_BIT</title>
<polygon fill="#ffffff" fill-opacity="0.003922" stroke="transparent" stroke-width="2" points="253,-134 137,-134 137,-98 253,-98 253,-134"/>
<text text-anchor="start" x="147.9912" y="-112.2" font-family="Helvetica,sans-Serif" font-size="12.00" fill="#000000">s_RX_STOP_BIT</text>
<path fill="none" stroke="#000000" stroke-width="2" d="M149.3333,-99C149.3333,-99 240.6667,-99 240.6667,-99 246.3333,-99 252,-104.6667 252,-110.3333 252,-110.3333 252,-121.6667 252,-121.6667 252,-127.3333 246.3333,-133 240.6667,-133 240.6667,-133 149.3333,-133 149.3333,-133 143.6667,-133 138,-127.3333 138,-121.6667 138,-121.6667 138,-110.3333 138,-110.3333 138,-104.6667 143.6667,-99 149.3333,-99"/>
</g>
<!-- s_RX_DATA_BITS&#45;&gt;s_RX_STOP_BIT -->
<g id="edge8" class="edge transition">
<title>s_RX_DATA_BITS&#45;&gt;s_RX_STOP_BIT</title>
<path fill="none" stroke="#000000" d="M100.5588,-191.8759C118.768,-177.2462 144.5625,-156.5224 164.5939,-140.4288"/>
<polygon fill="#000000" stroke="#000000" points="166.9069,-143.0602 172.5105,-134.0685 162.5227,-137.6032 166.9069,-143.0602"/>
<text text-anchor="start" x="150" y="-166" font-family="Helvetica,sans-Serif" font-size="10.00" fill="#000000">not (r_Bit_Index &lt; 7) &#160;&#160;</text>
<text text-anchor="start" x="150" y="-154" font-family="Helvetica,sans-Serif" font-size="10.00" fill="#000000">not (r_Clock_Count &lt; CLKS_PER_BIT&#45;1) &#160;&#160;</text>
</g>
<!-- s_RX_STOP_BIT&#45;&gt;s_RX_STOP_BIT -->
<g id="edge9" class="edge transition">
<title>s_RX_STOP_BIT&#45;&gt;s_RX_STOP_BIT</title>
<path fill="none" stroke="#000000" d="M253.2476,-120.731C265.8561,-120.2684 275,-118.6914 275,-116 275,-114.1076 270.4794,-112.7662 263.4124,-111.9757"/>
<polygon fill="#000000" stroke="#000000" points="263.4663,-108.471 253.2476,-111.269 262.9807,-115.4542 263.4663,-108.471"/>
<text text-anchor="start" x="275" y="-113" font-family="Helvetica,sans-Serif" font-size="10.00" fill="#000000">r_Clock_Count &lt; CLKS_PER_BIT&#45;1 &#160;&#160;</text>
</g>
<!-- s_CLEANUP -->
<g id="node6" class="node state regular">
<title>s_CLEANUP</title>
<polygon fill="#ffffff" fill-opacity="0.003922" stroke="transparent" stroke-width="2" points="411.5,-52 320.5,-52 320.5,-16 411.5,-16 411.5,-52"/>
<text text-anchor="start" x="331.8308" y="-30.2" font-family="Helvetica,sans-Serif" font-size="12.00" fill="#000000">s_CLEANUP</text>
<path fill="none" stroke="#000000" stroke-width="2" d="M332.8333,-17C332.8333,-17 399.1667,-17 399.1667,-17 404.8333,-17 410.5,-22.6667 410.5,-28.3333 410.5,-28.3333 410.5,-39.6667 410.5,-39.6667 410.5,-45.3333 404.8333,-51 399.1667,-51 399.1667,-51 332.8333,-51 332.8333,-51 327.1667,-51 321.5,-45.3333 321.5,-39.6667 321.5,-39.6667 321.5,-28.3333 321.5,-28.3333 321.5,-22.6667 327.1667,-17 332.8333,-17"/>
</g>
<!-- s_RX_STOP_BIT&#45;&gt;s_CLEANUP -->
<g id="edge10" class="edge transition">
<title>s_RX_STOP_BIT&#45;&gt;s_CLEANUP</title>
<path fill="none" stroke="#000000" d="M232.9504,-97.8015C258.3873,-85.6037 292.0573,-69.4579 319.1613,-56.4607"/>
<polygon fill="#000000" stroke="#000000" points="320.9467,-59.4862 328.4502,-52.0063 317.9199,-53.1744 320.9467,-59.4862"/>
<text text-anchor="start" x="291" y="-72" font-family="Helvetica,sans-Serif" font-size="10.00" fill="#000000">not (r_Clock_Count &lt; CLKS_PER_BIT&#45;1) &#160;&#160;</text>
</g>
<!-- s_CLEANUP&#45;&gt;s_IDLE -->
<g id="edge11" class="edge transition">
<title>s_CLEANUP&#45;&gt;s_IDLE</title>
<path fill="none" stroke="#000000" d="M411.6938,-38.2684C474.2803,-44.7429 579,-58.101 579,-75 579,-351 579,-351 579,-351 579,-376.605 404.5639,-390.5684 323.0578,-395.6953"/>
<polygon fill="#000000" stroke="#000000" points="322.4325,-392.227 312.6656,-396.3327 322.8611,-399.2139 322.4325,-392.227"/>
<text text-anchor="middle" x="580.3895" y="-207" font-family="Helvetica,sans-Serif" font-size="10.00" fill="#000000"> </text>
</g>
</g>
</svg>
