<?xml version="1.0" encoding="UTF-8" standalone="no"?>
<!DOCTYPE svg PUBLIC "-//W3C//DTD SVG 1.1//EN"
 "http://www.w3.org/Graphics/SVG/1.1/DTD/svg11.dtd">
<!-- Generated by graphviz version 2.40.1 (20161225.0304)
 -->
<!-- Title: state transitions Pages: 1 -->
<svg width="604pt" height="446pt"
 viewBox="0.00 0.00 604.00 446.00" xmlns="http://www.w3.org/2000/svg" xmlns:xlink="http://www.w3.org/1999/xlink">
<g id="graph0" class="graph" transform="scale(1 1) rotate(0) translate(4 442)">
<title>state transitions</title>
<polygon fill="#ffffff" stroke="transparent" points="-4,4 -4,-442 600,-442 600,4 -4,4"/>
<g id="clust1" class="cluster state regular">
<title>cluster_r_SM_Main</title>
<path fill="none" stroke="#000000" stroke-width="2" d="M20,-8C20,-8 576,-8 576,-8 582,-8 588,-14 588,-20 588,-20 588,-418 588,-418 588,-424 582,-430 576,-430 576,-430 20,-430 20,-430 14,-430 8,-424 8,-418 8,-418 8,-20 8,-20 8,-14 14,-8 20,-8"/>
<text text-anchor="start" x="267.8334" y="-411.2" font-family="Helvetica,sans-Serif" font-size="12.00" fill="#000000">r_SM_Main</text>
</g>
<!-- r_SM_Main -->
<!-- s_IDLE -->
<g id="node2" class="node state regular">
<title>s_IDLE</title>
<polygon fill="#ffffff" fill-opacity="0.003922" stroke="transparent" stroke-width="2" points="189.5,-392 128.5,-392 128.5,-356 189.5,-356 189.5,-392"/>
<text text-anchor="start" x="139.829" y="-370.2" font-family="Helvetica,sans-Serif" font-size="12.00" fill="#000000">s_IDLE</text>
<path fill="none" stroke="#000000" stroke-width="2" d="M140.8333,-357C140.8333,-357 177.1667,-357 177.1667,-357 182.8333,-357 188.5,-362.6667 188.5,-368.3333 188.5,-368.3333 188.5,-379.6667 188.5,-379.6667 188.5,-385.3333 182.8333,-391 177.1667,-391 177.1667,-391 140.8333,-391 140.8333,-391 135.1667,-391 129.5,-385.3333 129.5,-379.6667 129.5,-379.6667 129.5,-368.3333 129.5,-368.3333 129.5,-362.6667 135.1667,-357 140.8333,-357"/>
</g>
<!-- s_IDLE&#45;&gt;s_IDLE -->
<g id="edge2" class="edge transition">
<title>s_IDLE&#45;&gt;s_IDLE</title>
<path fill="none" stroke="#000000" d="M189.7377,-378.856C201.6221,-379.0718 211.5,-377.4531 211.5,-374 211.5,-371.626 206.8311,-370.119 200.0512,-369.4792"/>
<polygon fill="#000000" stroke="#000000" points="199.8461,-365.9707 189.7377,-369.144 199.6187,-372.967 199.8461,-365.9707"/>
<text text-anchor="start" x="211.5" y="-371" font-family="Helvetica,sans-Serif" font-size="10.00" fill="#000000">not (i_Tx_DV == 1&#39;b1) &#160;&#160;</text>
</g>
<!-- s_TX_START_BIT -->
<g id="node3" class="node state regular">
<title>s_TX_START_BIT</title>
<polygon fill="#ffffff" fill-opacity="0.003922" stroke="transparent" stroke-width="2" points="198.5,-310 77.5,-310 77.5,-274 198.5,-274 198.5,-310"/>
<text text-anchor="start" x="88.8278" y="-288.2" font-family="Helvetica,sans-Serif" font-size="12.00" fill="#000000">s_TX_START_BIT</text>
<path fill="none" stroke="#000000" stroke-width="2" d="M89.8333,-275C89.8333,-275 186.1667,-275 186.1667,-275 191.8333,-275 197.5,-280.6667 197.5,-286.3333 197.5,-286.3333 197.5,-297.6667 197.5,-297.6667 197.5,-303.3333 191.8333,-309 186.1667,-309 186.1667,-309 89.8333,-309 89.8333,-309 84.1667,-309 78.5,-303.3333 78.5,-297.6667 78.5,-297.6667 78.5,-286.3333 78.5,-286.3333 78.5,-280.6667 84.1667,-275 89.8333,-275"/>
</g>
<!-- s_IDLE&#45;&gt;s_TX_START_BIT -->
<g id="edge1" class="edge transition">
<title>s_IDLE&#45;&gt;s_TX_START_BIT</title>
<path fill="none" stroke="#000000" d="M154.3394,-355.8015C151.6478,-345.2915 148.2056,-331.8503 145.1753,-320.0177"/>
<polygon fill="#000000" stroke="#000000" points="148.5191,-318.9666 142.6476,-310.1476 141.738,-320.7033 148.5191,-318.9666"/>
<text text-anchor="start" x="149" y="-330" font-family="Helvetica,sans-Serif" font-size="10.00" fill="#000000">i_Tx_DV == 1&#39;b1 &#160;&#160;</text>
</g>
<!-- s_TX_START_BIT&#45;&gt;s_TX_START_BIT -->
<g id="edge3" class="edge transition">
<title>s_TX_START_BIT&#45;&gt;s_TX_START_BIT</title>
<path fill="none" stroke="#000000" d="M198.7999,-296.7036C211.4229,-296.2085 220.5,-294.6406 220.5,-292 220.5,-290.1433 216.0124,-288.817 208.96,-288.021"/>
<polygon fill="#000000" stroke="#000000" points="209.0236,-284.5167 198.7999,-287.2964 208.5256,-291.499 209.0236,-284.5167"/>
<text text-anchor="start" x="220.5" y="-289" font-family="Helvetica,sans-Serif" font-size="10.00" fill="#000000">r_Clock_Count &lt; CLKS_PER_BIT&#45;1 &#160;&#160;</text>
</g>
<!-- s_TX_DATA_BITS -->
<g id="node4" class="node state regular">
<title>s_TX_DATA_BITS</title>
<polygon fill="#ffffff" fill-opacity="0.003922" stroke="transparent" stroke-width="2" points="138,-228 16,-228 16,-192 138,-192 138,-228"/>
<text text-anchor="start" x="26.9918" y="-206.2" font-family="Helvetica,sans-Serif" font-size="12.00" fill="#000000">s_TX_DATA_BITS</text>
<path fill="none" stroke="#000000" stroke-width="2" d="M28.3333,-193C28.3333,-193 125.6667,-193 125.6667,-193 131.3333,-193 137,-198.6667 137,-204.3333 137,-204.3333 137,-215.6667 137,-215.6667 137,-221.3333 131.3333,-227 125.6667,-227 125.6667,-227 28.3333,-227 28.3333,-227 22.6667,-227 17,-221.3333 17,-215.6667 17,-215.6667 17,-204.3333 17,-204.3333 17,-198.6667 22.6667,-193 28.3333,-193"/>
</g>
<!-- s_TX_START_BIT&#45;&gt;s_TX_DATA_BITS -->
<g id="edge4" class="edge transition">
<title>s_TX_START_BIT&#45;&gt;s_TX_DATA_BITS</title>
<path fill="none" stroke="#000000" d="M124.4621,-273.8015C116.2488,-262.7606 105.6292,-248.4851 96.5184,-236.2378"/>
<polygon fill="#000000" stroke="#000000" points="99.2769,-234.082 90.5,-228.1476 93.6605,-238.2601 99.2769,-234.082"/>
<text text-anchor="start" x="111" y="-248" font-family="Helvetica,sans-Serif" font-size="10.00" fill="#000000">not (r_Clock_Count &lt; CLKS_PER_BIT&#45;1) &#160;&#160;</text>
</g>
<!-- s_TX_DATA_BITS&#45;&gt;s_TX_DATA_BITS -->
<g id="edge5" class="edge transition">
<title>s_TX_DATA_BITS&#45;&gt;s_TX_DATA_BITS</title>
<path fill="none" stroke="#000000" d="M138.1684,-212.3518C150.8678,-212.1042 160,-211.3203 160,-210 160,-209.0717 155.4852,-208.4085 148.39,-208.0105"/>
<polygon fill="#000000" stroke="#000000" points="148.2862,-204.5047 138.1684,-207.6482 148.0381,-211.5003 148.2862,-204.5047"/>
<text text-anchor="start" x="160" y="-207" font-family="Helvetica,sans-Serif" font-size="10.00" fill="#000000">r_Clock_Count &lt; CLKS_PER_BIT&#45;1 &#160;&#160;</text>
</g>
<!-- s_TX_DATA_BITS&#45;&gt;s_TX_DATA_BITS -->
<g id="edge6" class="edge transition">
<title>s_TX_DATA_BITS&#45;&gt;s_TX_DATA_BITS</title>
<path fill="none" stroke="#000000" d="M138.2099,-213.8741C214.0171,-216.014 328.089,-214.7227 328.089,-210 328.089,-205.4895 224.0356,-204.1089 148.6439,-205.8583"/>
<polygon fill="#000000" stroke="#000000" points="148.1168,-202.3706 138.2099,-206.1259 148.2964,-209.3683 148.1168,-202.3706"/>
<text text-anchor="start" x="328.089" y="-213" font-family="Helvetica,sans-Serif" font-size="10.00" fill="#000000">r_Bit_Index &lt; 7 &#160;&#160;</text>
<text text-anchor="start" x="328.089" y="-201" font-family="Helvetica,sans-Serif" font-size="10.00" fill="#000000">not (r_Clock_Count &lt; CLKS_PER_BIT&#45;1) &#160;&#160;</text>
</g>
<!-- s_TX_STOP_BIT -->
<g id="node5" class="node state regular">
<title>s_TX_STOP_BIT</title>
<polygon fill="#ffffff" fill-opacity="0.003922" stroke="transparent" stroke-width="2" points="251,-134 137,-134 137,-98 251,-98 251,-134"/>
<text text-anchor="start" x="147.6572" y="-112.2" font-family="Helvetica,sans-Serif" font-size="12.00" fill="#000000">s_TX_STOP_BIT</text>
<path fill="none" stroke="#000000" stroke-width="2" d="M149.3333,-99C149.3333,-99 238.6667,-99 238.6667,-99 244.3333,-99 250,-104.6667 250,-110.3333 250,-110.3333 250,-121.6667 250,-121.6667 250,-127.3333 244.3333,-133 238.6667,-133 238.6667,-133 149.3333,-133 149.3333,-133 143.6667,-133 138,-127.3333 138,-121.6667 138,-121.6667 138,-110.3333 138,-110.3333 138,-104.6667 143.6667,-99 149.3333,-99"/>
</g>
<!-- s_TX_DATA_BITS&#45;&gt;s_TX_STOP_BIT -->
<g id="edge7" class="edge transition">
<title>s_TX_DATA_BITS&#45;&gt;s_TX_STOP_BIT</title>
<path fill="none" stroke="#000000" d="M99.5588,-191.8759C117.768,-177.2462 143.5625,-156.5224 163.5939,-140.4288"/>
<polygon fill="#000000" stroke="#000000" points="165.9069,-143.0602 171.5105,-134.0685 161.5227,-137.6032 165.9069,-143.0602"/>
<text text-anchor="start" x="149" y="-166" font-family="Helvetica,sans-Serif" font-size="10.00" fill="#000000">not (r_Bit_Index &lt; 7) &#160;&#160;</text>
<text text-anchor="start" x="149" y="-154" font-family="Helvetica,sans-Serif" font-size="10.00" fill="#000000">not (r_Clock_Count &lt; CLKS_PER_BIT&#45;1) &#160;&#160;</text>
</g>
<!-- s_TX_STOP_BIT&#45;&gt;s_TX_STOP_BIT -->
<g id="edge8" class="edge transition">
<title>s_TX_STOP_BIT&#45;&gt;s_TX_STOP_BIT</title>
<path fill="none" stroke="#000000" d="M251.1662,-120.7438C263.7992,-120.2981 273,-118.7168 273,-116 273,-114.0898 268.4513,-112.7409 261.3591,-111.9534"/>
<polygon fill="#000000" stroke="#000000" points="261.3817,-108.4469 251.1662,-111.2562 260.904,-115.4306 261.3817,-108.4469"/>
<text text-anchor="start" x="273" y="-113" font-family="Helvetica,sans-Serif" font-size="10.00" fill="#000000">r_Clock_Count &lt; CLKS_PER_BIT&#45;1 &#160;&#160;</text>
</g>
<!-- s_CLEANUP -->
<g id="node6" class="node state regular">
<title>s_CLEANUP</title>
<polygon fill="#ffffff" fill-opacity="0.003922" stroke="transparent" stroke-width="2" points="409.5,-52 318.5,-52 318.5,-16 409.5,-16 409.5,-52"/>
<text text-anchor="start" x="329.8308" y="-30.2" font-family="Helvetica,sans-Serif" font-size="12.00" fill="#000000">s_CLEANUP</text>
<path fill="none" stroke="#000000" stroke-width="2" d="M330.8333,-17C330.8333,-17 397.1667,-17 397.1667,-17 402.8333,-17 408.5,-22.6667 408.5,-28.3333 408.5,-28.3333 408.5,-39.6667 408.5,-39.6667 408.5,-45.3333 402.8333,-51 397.1667,-51 397.1667,-51 330.8333,-51 330.8333,-51 325.1667,-51 319.5,-45.3333 319.5,-39.6667 319.5,-39.6667 319.5,-28.3333 319.5,-28.3333 319.5,-22.6667 325.1667,-17 330.8333,-17"/>
</g>
<!-- s_TX_STOP_BIT&#45;&gt;s_CLEANUP -->
<g id="edge9" class="edge transition">
<title>s_TX_STOP_BIT&#45;&gt;s_CLEANUP</title>
<path fill="none" stroke="#000000" d="M231.7285,-97.8015C257.0167,-85.6037 290.4898,-69.4579 317.4352,-56.4607"/>
<polygon fill="#000000" stroke="#000000" points="319.1834,-59.5034 326.6698,-52.0063 316.1422,-53.1985 319.1834,-59.5034"/>
<text text-anchor="start" x="290" y="-72" font-family="Helvetica,sans-Serif" font-size="10.00" fill="#000000">not (r_Clock_Count &lt; CLKS_PER_BIT&#45;1) &#160;&#160;</text>
</g>
<!-- s_CLEANUP&#45;&gt;s_IDLE -->
<g id="edge10" class="edge transition">
<title>s_CLEANUP&#45;&gt;s_IDLE</title>
<path fill="none" stroke="#000000" d="M409.6938,-38.2684C472.2803,-44.7429 577,-58.101 577,-75 577,-333 577,-333 577,-333 577,-351.8138 305.2544,-366.9432 199.9766,-372.0986"/>
<polygon fill="#000000" stroke="#000000" points="199.5556,-368.6148 189.7365,-372.5942 199.8941,-375.6066 199.5556,-368.6148"/>
<text text-anchor="middle" x="578.3895" y="-207" font-family="Helvetica,sans-Serif" font-size="10.00" fill="#000000"> </text>
</g>
</g>
</svg>
